<?xml version="1.0" encoding="UTF-8"?>
<svg enable-background="new 0 0 512.001 512.001" version="1.1" viewBox="0 0 512.001 512.001" xml:space="preserve" xmlns="http://www.w3.org/2000/svg" xmlns:xlink="http://www.w3.org/1999/xlink">
    <path d="m44.285 43.246c-4.7984-0.03616-9.5828 1.5101-13.539 4.5859l-5.5547 4.3184c-4.7503 3.6931-5.6072 10.537-1.9141 15.287l49.912 64.197c2.236 2.876 1.4336 4.7193 1.7324 10.135s46.895 134.74 69.758 156.44 33.855 32.412 56.852 35.516v116.41c0 2.298-1.8612 4.1621-4.1602 4.1621-4.126 0-7.8972 2.3305-9.7422 6.0215l-7.8848 15.766h50.135c2.536 0 4.7356-1.7507 5.3066-4.2227l31.707-137.39h115.99l47.023 114.2c1.105 2.682-0.86562 5.625-3.7656 5.625-4.126-1e-5 -7.8991 2.3305-9.7441 6.0215l-7.8828 15.766h59.961c2.707 0 4.662-2.5904 3.918-5.1934l-7.5391-26.389c-8.414-29.45-10.524-60.345-6.1934-90.666l3.7305-26.115c12.561-6.197 23.051-16.381 29.551-29.383l14.615-29.232c0-25.845-16.999-48.609-41.779-55.953l-214.19-63.463c-0.27648-0.80028-0.74102-1.5596-1.4316-2.2031l-49.283-45.914c-27.766-25.869-65.533-38.166-103.21-33.607-1.14 0.8863-2.7069 0.98946-3.9531 0.25976l-37.592-21.998c-3.3639-1.9682-7.1039-2.9523-10.836-2.9805z" fill="#a1acb8"/>
    <g transform="translate(0 24)" fill="#a5b0bc">
        <path d="m392.22 452.08h-59.961l7.883-15.765c1.845-3.691 5.617-6.022 9.743-6.022 2.9 0 4.872-2.943 3.767-5.625l-47.024-114.2h-17.943v-43.574h87.149v78.422c0 20.244 2.821 40.389 8.383 59.855l11.921 41.721c0.742 2.602-1.211 5.192-3.918 5.192z"/>
        <path d="m234.21 266.89v43.574l-31.707 137.4c-0.571 2.472-2.771 4.222-5.307 4.222h-50.134l7.883-15.765c1.845-3.691 5.618-6.022 9.743-6.022 2.299 0 4.161-1.863 4.161-4.161v-159.24z"/>
    </g>
    <path d="m506.55 269.11v157.96c0 5.234-6.664 7.456-9.804 3.268-14.849-19.799-22.877-43.881-22.877-68.63v-136.17z" fill="#a5b0bc"/>
    <path d="m506.55 395.52v31.541c0 5.234-6.664 7.456-9.804 3.268-12.409-16.546-20.033-36.085-22.21-56.503 4.863 8.83 11.204 17.224 18.942 24.962 4.187 4.188 13.072 1.967 13.072-3.268z" fill="#5e656e"/>
    <path d="m45.924 43.32 90.076 115.86l4.3867 5.6406s13.177 22.676 23.473 30.193c13.925 10.168 48.566 1.5436 48.566 17.807v9.0781c0 20.054-16.258 36.312-36.312 36.312l-7.4629-22.385c-8.336 17.865-21.095 33.559-35.783 45.876 0 0 4.2801 9.1605 11.75 16.52s33.917 32.4 56.914 35.504v116.41c0 2.298-1.8612 4.1602-4.1602 4.1602-4.126-1e-5 -7.8972 2.3305-9.7422 6.0215l-7.8848 15.766h50.135c2.536 0 4.7356-1.7506 5.3066-4.2226l31.707-137.39 50.668-33.686c9.701-6.449 21.089-9.8887 32.738-9.8887 8.853 0 16.826 5.3558 20.172 13.551l12.26 30.025h0.14844l47.023 114.2c1.105 2.682-0.86562 5.625-3.7656 5.625-4.126-1e-5 -7.8991 2.3305-9.7441 6.0215l-7.8828 15.766h59.961c2.707 0 4.662-2.5904 3.918-5.1934l-7.5391-26.389c-8.414-29.45-10.524-60.345-6.1934-90.666l3.7305-26.115c12.561-6.197 23.051-16.381 29.551-29.383l14.615-29.232c0-25.845-16.998-48.609-41.777-55.953l-214.19-63.463s-33.812-32.371-50.713-48.117c-27.766-25.869-65.535-38.166-103.21-33.607-1.14 0.88631-2.7049 0.99142-3.9512 0.26172l-37.592-21.998c-2.8718-1.6801-6.0182-2.6453-9.1992-2.9082z" fill="#5e656e"/>
    <path id="mouth" d="m103.77 137.93-76.048-67.906c-3.9041-3.4861-9.9483 1.0157-8.4023 6.0166 2.3086 11.461 24.265 39.967 44.045 57.059l25.835 22.325z" fill="#a1acb8"/>
    <path d="m196.2 112.38-20.059-25.801 36.104-15.945c2.929-1.293 6.361-0.42718 8.3257 2.0999 1.9653 2.5279 1.9569 6.0672-0.0175 8.5864z" fill="#5e656e"/>
    <path d="m211.25 131.73-10.029-12.9 18.053-7.9723c1.4634-0.64627 3.1802-0.21398 4.1628 1.05 0.98268 1.264 0.97917 3.0337-9e-3 4.2932z" fill="#a1acb8"/>
    <path d="m135.06 104.72-8.6005 6.6866-6.6866-8.6005c4.7502-3.6932 11.594-2.8363 15.287 1.914z" fill="#ffea62"/>
    <path d="m62.636 50.619-6.8803 5.3491c-4.7503 3.6931-11.594 2.8363-15.287-1.914l-6.4668-8.3179c6.572-3.4451 14.553-3.3559 21.112 0.48114z" fill="#49463e"/>
    <path d="m227.83 127.36 12.786-20.245c2.1621-2.7551 1.9673-6.7351-0.58985-9.2715-2.0791-2.0632-5.2881-2.4879-7.9668-1.3047l-25.498 11.26-6.6856-6.2285c-24.128-22.479-55.804-34.701-88.412-34.529h-2.3e-4c-2.1739 0.0115-4.3511 0.0789-6.5312 0.20117 18.077 5.691 34.888 15.36 49.084 28.586l49.283 45.914c3.0977 2.8863-2.2051 9.2188-2.2051 9.2188l-14.959 9.582c-2.381 5.955 0.87053 12.667 7.0195 14.49l238.94 70.797c24.78 7.342 41.777 30.108 41.777 55.953l-11.572 23.148v2.8164c12.599-6.193 23.124-16.384 29.639-29.414l14.615-29.232c0-25.845-16.998-48.609-41.777-55.949l-213.51-64.029" fill="#474d54"/>
    <animateTransform xlink:href="#mouth" attributeName="transform" type="rotate" values="0 110 100; -15 110 100; 0 110 100; -15 110 100; 0 110 100; -20 110 100; 0 110 100;" keyTimes="0; 0.03; 0.28; 0.34; 0.64; 0.72; 1" begin="10s" dur="29s" id="mouth-animation" />
</svg>